<svg width="113" height="38" viewBox="0 0 113 38" fill="none" xmlns="http://www.w3.org/2000/svg">
<path d="M14.0391 1.08691H20.9727L34.791 37H27.6865L24.8789 29.6025H10.2305L7.30078 37H0.196289L14.0391 1.08691ZM17.5547 10.6084L12.7695 22.9375H22.3154L17.5547 10.6084ZM40.1377 1.08691H46.6807L62.0859 24.7197V1.08691H68.9219V37H62.3545L46.9736 13.4404V37H40.1377V1.08691ZM94.0928 0.183594C99.1709 0.183594 103.533 2.02279 107.179 5.70117C110.841 9.37956 112.672 13.8636 112.672 19.1533C112.672 24.3942 110.865 28.8294 107.252 32.459C103.655 36.0885 99.2848 37.9033 94.1416 37.9033C88.7542 37.9033 84.2783 36.0397 80.7139 32.3125C77.1494 28.5853 75.3672 24.1582 75.3672 19.0312C75.3672 15.597 76.1973 12.4395 77.8574 9.55859C79.5176 6.67773 81.7962 4.39909 84.6934 2.72266C87.6068 1.02995 90.7399 0.183594 94.0928 0.183594ZM94.0195 6.87305C90.6992 6.87305 87.9079 8.02865 85.6455 10.3398C83.3831 12.651 82.252 15.5889 82.252 19.1533C82.252 23.1247 83.6761 26.266 86.5244 28.5771C88.738 30.3838 91.277 31.2871 94.1416 31.2871C97.3805 31.2871 100.139 30.1152 102.418 27.7715C104.697 25.4277 105.836 22.5387 105.836 19.1045C105.836 15.6865 104.688 12.7975 102.394 10.4375C100.099 8.0612 97.3073 6.87305 94.0195 6.87305Z" fill="white"/>
</svg>
